<?xml version="1.0" encoding="UTF-8" standalone="no"?>
<svg
   xmlns:dc="http://purl.org/dc/elements/1.1/"
   xmlns:cc="http://creativecommons.org/ns#"
   xmlns:rdf="http://www.w3.org/1999/02/22-rdf-syntax-ns#"
   xmlns:svg="http://www.w3.org/2000/svg"
   xmlns="http://www.w3.org/2000/svg"
   viewBox="0 0 181.33333 46.222267"
   height="46.222267"
   width="181.33333"
   xml:space="preserve"
   id="svg2"
   version="1.1"><metadata
     id="metadata8"><rdf:RDF><cc:Work
         rdf:about=""><dc:format>image/svg+xml</dc:format><dc:type
           rdf:resource="http://purl.org/dc/dcmitype/StillImage" /></cc:Work></rdf:RDF></metadata><defs
     id="defs6"><clipPath
       id="clipPath18"
       clipPathUnits="userSpaceOnUse"><path
         id="path16"
         d="M 0,34.667 H 136 V 0 H 0 Z" /></clipPath></defs><g
     transform="matrix(1.3333333,0,0,-1.3333333,0,46.222267)"
     id="g10"><g
       id="g12"><g
         clip-path="url(#clipPath18)"
         id="g14"><g
           transform="translate(9.8945,28.1003)"
           id="g20"><path
             id="path22"
             style="fill:#ffffff;fill-opacity:1;fill-rule:nonzero;stroke:none"
             d="m 0,0 v -14.375 c 0,-2.167 -0.615,-3.956 -1.844,-5.367 -1.229,-1.412 -2.786,-2.117 -4.672,-2.117 -0.552,0 -1.198,0.12 -1.937,0.359 v 6.141 c 0.312,-0.136 0.599,-0.204 0.859,-0.204 0.833,0 1.25,0.672 1.25,2.016 l 0,13.547 z" /></g><g
           transform="translate(28.4102,13.6159)"
           id="g24"><path
             id="path26"
             style="fill:#ffffff;fill-opacity:1;fill-rule:nonzero;stroke:none"
             d="m 0,0 h -8.859 c -0.136,0.447 -0.204,0.859 -0.204,1.234 0,0.521 0.094,1.032 0.282,1.532 h 2.969 C -6.021,3.922 -6.672,4.5 -7.766,4.5 c -0.729,0 -1.323,-0.311 -1.781,-0.93 -0.458,-0.62 -0.687,-1.414 -0.687,-2.383 0,-1.01 0.221,-1.828 0.664,-2.453 0.442,-0.625 1.023,-0.937 1.742,-0.937 0.583,0 1.145,0.291 1.687,0.875 l 3.328,-4 c -1.552,-1.219 -3.276,-1.828 -5.171,-1.828 -2.313,0 -4.256,0.775 -5.829,2.328 -1.573,1.552 -2.359,3.474 -2.359,5.765 0,2.282 0.794,4.209 2.383,5.782 1.588,1.573 3.539,2.359 5.852,2.359 2.26,0 4.158,-0.768 5.695,-2.305 C -0.706,5.236 0.062,3.344 0.062,1.094 0.062,0.864 0.042,0.5 0,0" /></g><g
           transform="translate(30.832,22.1315)"
           id="g28"><path
             id="path30"
             style="fill:#ffffff;fill-opacity:1;fill-rule:nonzero;stroke:none"
             d="m 0,0 h 5.844 v -8.391 c 0,-0.656 0.067,-1.112 0.203,-1.367 0.135,-0.256 0.38,-0.383 0.734,-0.383 0.656,0 0.985,0.583 0.985,1.75 V 0 h 5.843 v -8.391 c 0,-0.656 0.071,-1.112 0.211,-1.367 0.141,-0.256 0.388,-0.383 0.743,-0.383 0.645,0 0.968,0.583 0.968,1.75 V 0 h 5.844 v -9.594 c 0,-1.75 -0.589,-3.237 -1.766,-4.461 -1.177,-1.224 -2.604,-1.836 -4.281,-1.836 -1.729,0 -3.281,0.729 -4.656,2.188 -1.521,-1.459 -3.052,-2.188 -4.594,-2.188 -1.948,0 -3.511,0.708 -4.687,2.125 C 0.463,-12.651 0,-11.042 0,-8.938 Z" /></g><g
           transform="translate(70.9414,13.6159)"
           id="g32"><path
             id="path34"
             style="fill:#ffffff;fill-opacity:1;fill-rule:nonzero;stroke:none"
             d="m 0,0 h -8.859 c -0.136,0.447 -0.204,0.859 -0.204,1.234 0,0.521 0.094,1.032 0.282,1.532 h 2.969 C -6.021,3.922 -6.672,4.5 -7.766,4.5 c -0.729,0 -1.323,-0.311 -1.781,-0.93 -0.458,-0.62 -0.687,-1.414 -0.687,-2.383 0,-1.01 0.221,-1.828 0.664,-2.453 0.442,-0.625 1.023,-0.937 1.742,-0.937 0.583,0 1.145,0.291 1.687,0.875 l 3.328,-4 c -1.552,-1.219 -3.276,-1.828 -5.171,-1.828 -2.313,0 -4.256,0.775 -5.829,2.328 -1.573,1.552 -2.359,3.474 -2.359,5.765 0,2.282 0.794,4.209 2.383,5.782 1.588,1.573 3.539,2.359 5.852,2.359 2.259,0 4.158,-0.768 5.695,-2.305 C -0.706,5.236 0.062,3.344 0.062,1.094 0.062,0.864 0.041,0.5 0,0" /></g><path
           id="path36"
           style="fill:#ffffff;fill-opacity:1;fill-rule:nonzero;stroke:none"
           d="M 79.207,6.772 H 73.363 V 28.1 h 5.844 z" /><path
           id="path38"
           style="fill:#ffffff;fill-opacity:1;fill-rule:nonzero;stroke:none"
           d="M 88.473,6.772 H 82.629 V 28.1 h 5.844 z" /><g
           transform="translate(107.207,13.6159)"
           id="g40"><path
             id="path42"
             style="fill:#ffffff;fill-opacity:1;fill-rule:nonzero;stroke:none"
             d="m 0,0 h -8.859 c -0.136,0.447 -0.204,0.859 -0.204,1.234 0,0.521 0.094,1.032 0.282,1.532 h 2.969 C -6.021,3.922 -6.672,4.5 -7.766,4.5 c -0.729,0 -1.323,-0.311 -1.781,-0.93 -0.459,-0.62 -0.687,-1.414 -0.687,-2.383 0,-1.01 0.22,-1.828 0.664,-2.453 0.442,-0.625 1.023,-0.937 1.742,-0.937 0.583,0 1.145,0.291 1.687,0.875 l 3.328,-4 c -1.552,-1.219 -3.276,-1.828 -5.171,-1.828 -2.313,0 -4.256,0.775 -5.829,2.328 -1.573,1.552 -2.359,3.474 -2.359,5.765 0,2.282 0.794,4.209 2.383,5.782 1.588,1.573 3.539,2.359 5.852,2.359 2.259,0 4.158,-0.768 5.695,-2.305 C -0.706,5.236 0.062,3.344 0.062,1.094 0.062,0.864 0.041,0.5 0,0" /></g><g
           transform="translate(118.1758,22.5065)"
           id="g44"><path
             id="path46"
             style="fill:#ffffff;fill-opacity:1;fill-rule:nonzero;stroke:none"
             d="m 0,0 v -6.25 c -0.406,0.229 -0.776,0.344 -1.109,0.344 -1.063,0 -1.594,-0.813 -1.594,-2.438 v -7.39 h -5.844 v 8.515 c 0,2.25 0.614,4.044 1.844,5.383 1.228,1.338 2.869,2.008 4.922,2.008 C -1.323,0.172 -0.729,0.114 0,0" /></g><g
           transform="translate(121.9102,-0.056)"
           id="g48"><path
             id="path50"
             style="fill:#ffffff;fill-opacity:1;fill-rule:nonzero;stroke:none"
             d="m 0,0 v 5.078 c 0.791,-0.333 1.484,-0.5 2.078,-0.5 1.896,0 3.125,1.068 3.688,3.203 -1.022,-0.604 -2.022,-0.906 -3,-0.906 -1.449,0 -2.641,0.539 -3.578,1.617 -0.938,1.078 -1.407,2.45 -1.407,4.117 v 9.797 h 5.844 v -8.375 c 0,-0.927 0.385,-1.39 1.156,-1.39 0.74,0 1.11,0.509 1.11,1.531 v 8.234 h 5.843 V 8.5 C 11.734,5.906 11.005,3.813 9.547,2.219 7.807,0.323 5.703,-0.625 3.234,-0.625 2.15,-0.625 1.072,-0.416 0,0" /></g></g></g></g></svg>